<svg width="40" height="40" viewBox="0 0 40 40" fill="none" xmlns="http://www.w3.org/2000/svg">
  <path d="M20 36.6667C20 36.6667 33.3333 28.3333 33.3333 16.6667C33.3333 9.30333 27.3633 3.33333 20 3.33333C12.6367 3.33333 6.66667 9.30333 6.66667 16.6667C6.66667 28.3333 20 36.6667 20 36.6667Z" fill="#7C3AED" stroke="#5B21B6" stroke-width="2"/>
  <path d="M20 23.3333C23.6819 23.3333 26.6667 20.3486 26.6667 16.6667C26.6667 12.9848 23.6819 10 20 10C16.3181 10 13.3333 12.9848 13.3333 16.6667C13.3333 20.3486 16.3181 23.3333 20 23.3333Z" fill="white"/>
  <path d="M20 13.3333V20M16.6667 16.6667H23.3333" stroke="#7C3AED" stroke-width="2" stroke-linecap="round"/>
</svg>